<svg xmlns="http://www.w3.org/2000/svg" width="2600" height="2080" viewBox="0 0 2600 2080">
<rect width="100%" height="100%" fill="#ffffff"/>
<defs><path id="p1" d="M 122.12,86.37 Q 277.39,213.53 385.23,382.79" fill="none"/><path id="p2" d="M 131.35,186.33 Q 247.80,281.70 328.69,408.64" fill="none"/><path id="p3" d="M 702.77,131.40 Q 830.65,202.37 930.01,309.70" fill="none"/><path id="p4" d="M 594.88,156.89 Q 786.70,263.34 935.74,424.33" fill="none"/><path id="p5" d="M 1094.07,210.74 Q 1285.09,244.89 1455.92,336.94" fill="none"/><path id="p6" d="M 1176.37,309.02 Q 1312.81,333.41 1434.83,399.16" fill="none"/><path id="p7" d="M 1576.90,43.26 Q 1779.12,255.31 1905.09,519.87" fill="none"/><path id="p8" d="M 2264.31,156.96 Q 2369.06,272.50 2432.54,414.96" fill="none"/><path id="p9" d="M 2162.08,135.52 Q 2287.79,274.18 2363.96,445.13" fill="none"/><path id="p10" d="M 159.25,826.32 Q 249.60,777.22 350.77,758.77" fill="none"/><path id="p11" d="M 149.76,894.27 Q 307.88,808.35 484.92,776.05" fill="none"/><path id="p12" d="M 709.44,905.92 Q 735.33,829.97 783.62,765.88" fill="none"/><path id="p13" d="M 701.95,1021.64 Q 766.66,831.75 887.39,671.54" fill="none"/><path id="p14" d="M 1176.89,628.97 Q 1254.03,759.93 1286.46,908.42" fill="none"/><path id="p15" d="M 1816.28,654.57 Q 1888.52,796.27 1912.95,953.44" fill="none"/><path id="p16" d="M 1737.80,656.91 Q 1795.60,770.27 1815.14,896.01" fill="none"/><path id="p17" d="M 2145.18,695.65 Q 2363.22,759.48 2550.45,888.16" fill="none"/><path id="p18" d="M 2104.28,775.57 Q 2322.32,839.40 2509.56,968.08" fill="none"/><path id="p19" d="M 98.05,1260.96 Q 267.85,1261.86 428.90,1315.70" fill="none"/><path id="p20" d="M 747.20,1188.43 Q 809.82,1300.14 834.46,1425.81" fill="none"/><path id="p21" d="M 1157.52,1139.31 Q 1328.12,1213.98 1466.91,1338.15" fill="none"/><path id="p22" d="M 1181.31,1242.03 Q 1323.48,1304.26 1439.13,1407.73" fill="none"/><path id="p23" d="M 1109.65,1283.41 Q 1280.25,1358.08 1419.04,1482.25" fill="none"/><path id="p24" d="M 1604.47,1114.59 Q 1815.53,1229.41 1980.22,1404.35" fill="none"/><path id="p25" d="M 1648.16,1268.12 Q 1788.86,1344.66 1898.65,1461.29" fill="none"/><path id="p26" d="M 2246.96,1157.85 Q 2370.96,1271.99 2453.16,1419.13" fill="none"/><path id="p27" d="M 2159.56,1176.04 Q 2308.36,1313.02 2406.99,1489.59" fill="none"/><path id="p28" d="M 229.26,1688.20 Q 336.07,1765.50 413.43,1872.26" fill="none"/><path id="p29" d="M 96.96,1703.23 Q 274.98,1832.06 403.92,2010.01" fill="none"/><path id="p30" d="M 702.54,1817.20 Q 755.43,1834.65 800.22,1867.73" fill="none"/><path id="p31" d="M 694.22,1850.04 Q 747.11,1867.49 791.90,1900.58" fill="none"/><path id="p32" d="M 1193.48,1974.57 Q 1272.49,1830.30 1392.57,1717.88" fill="none"/><path id="p33" d="M 1229.93,2054.79 Q 1324.75,1881.65 1468.85,1746.75" fill="none"/><path id="p34" d="M 1648.48,1702.88 Q 1825.23,1780.21 1969.03,1908.83" fill="none"/><path id="p35" d="M 1681.29,1814.53 Q 1799.12,1866.08 1894.99,1951.83" fill="none"/></defs>
<path d="M 330.73,494.00 L 312.77,466.12 L 290.98,439.39 L 202.55,349.38 L 183.69,328.34 L 130.26,249.56 L 104.41,219.67 L 110.94,178.49 L 114.96,162.90 L 118.73,155.70 L 152.05,26.00 L 156.47,30.15 L 154.75,40.17 L 160.42,46.76 L 162.00,64.02 L 164.89,68.97 L 173.25,76.83 L 186.64,84.94 L 240.73,109.00 L 259.91,115.93 L 281.74,119.65 L 288.64,122.38 L 297.70,128.80 L 313.74,135.38 L 316.16,140.87 L 317.51,139.18 L 317.96,131.28 L 323.54,133.09 L 333.34,139.49 L 342.73,141.21 L 359.83,181.89 L 368.23,177.69 L 366.66,173.43 L 377.00,168.88 L 372.31,157.77 L 374.89,156.73 L 390.12,192.50 L 391.69,200.71 L 388.92,199.22 L 382.53,187.39 L 373.83,189.46 L 372.57,186.51 L 369.89,187.04 L 365.63,188.57 L 362.75,191.65 L 367.24,203.89 L 375.62,213.38 L 378.39,227.35 L 387.91,246.06 L 386.74,247.81 L 390.41,255.88 L 388.97,257.70 L 392.07,268.41 L 396.65,275.79 L 394.79,284.63 L 415.59,331.73 L 330.73,494.00 Z" fill="none" stroke="#dddddd" stroke-width="1.5" fill-rule="evenodd"/>
<text font-size="55.0" font-family="Arial Rounded MT Bold, Cooper Black, Chalkboard SE, sans-serif" font-weight="900" fill="#111111" text-anchor="middle"><textPath href="#p1" startOffset="50%">ASSEMBLY</textPath></text>
<text font-size="55.0" font-family="Arial Rounded MT Bold, Cooper Black, Chalkboard SE, sans-serif" font-weight="900" fill="#111111" text-anchor="middle"><textPath href="#p2" startOffset="50%">SQUARE</textPath></text>
<text x="8" y="16" font-size="12" font-family="monospace" fill="#999999">Assembly Square</text>
<path d="M 919.20,170.29 L 995.68,309.58 L 901.21,494.00 L 688.56,425.44 L 760.21,282.40 L 564.32,184.37 L 583.89,169.08 L 649.83,103.61 L 661.43,94.94 L 672.23,81.20 L 698.93,55.09 L 735.30,26.00 L 777.14,91.66 L 844.01,136.82 L 919.20,170.29 Z" fill="none" stroke="#dddddd" stroke-width="1.5" fill-rule="evenodd"/>
<text font-size="80.2" font-family="Arial Rounded MT Bold, Cooper Black, Chalkboard SE, sans-serif" font-weight="900" fill="#111111" text-anchor="middle"><textPath href="#p3" startOffset="50%">BALL</textPath></text>
<text font-size="80.2" font-family="Arial Rounded MT Bold, Cooper Black, Chalkboard SE, sans-serif" font-weight="900" fill="#111111" text-anchor="middle"><textPath href="#p4" startOffset="50%">SQUARE</textPath></text>
<text x="528" y="16" font-size="12" font-family="monospace" fill="#999999">Ball Square</text>
<path d="M 1457.82,233.18 L 1499.76,359.60 L 1534.00,399.03 L 1530.64,416.55 L 1399.95,374.85 L 1115.02,348.87 L 1066.00,141.65 L 1085.85,103.45 L 1181.73,162.64 L 1250.85,193.20 L 1298.87,208.48 L 1457.82,233.18 Z" fill="none" stroke="#dddddd" stroke-width="1.5" fill-rule="evenodd"/>
<text font-size="60.8" font-family="Arial Rounded MT Bold, Cooper Black, Chalkboard SE, sans-serif" font-weight="900" fill="#111111" text-anchor="middle"><textPath href="#p5" startOffset="50%">BOYNTON</textPath></text>
<text font-size="60.8" font-family="Arial Rounded MT Bold, Cooper Black, Chalkboard SE, sans-serif" font-weight="900" fill="#111111" text-anchor="middle"><textPath href="#p6" startOffset="50%">YARDS</textPath></text>
<text x="1048" y="16" font-size="12" font-family="monospace" fill="#999999">Boynton Yards</text>
<path d="M 2035.48,494.00 L 1846.25,464.89 L 1819.99,444.97 L 1775.61,395.89 L 1665.22,321.79 L 1651.33,302.98 L 1642.60,281.23 L 1604.52,89.86 L 1611.68,86.65 L 1608.52,73.95 L 1624.22,62.91 L 1713.23,26.00 L 1856.86,247.88 L 2035.48,494.00 Z" fill="none" stroke="#dddddd" stroke-width="1.5" fill-rule="evenodd"/>
<text font-size="58.5" font-family="Arial Rounded MT Bold, Cooper Black, Chalkboard SE, sans-serif" font-weight="900" fill="#111111" text-anchor="middle"><textPath href="#p7" startOffset="50%">BRICKBOTTOM</textPath></text>
<text x="1568" y="16" font-size="12" font-family="monospace" fill="#999999">Brickbottom</text>
<path d="M 2454.63,149.27 L 2458.18,157.02 L 2461.57,159.15 L 2471.02,158.91 L 2463.31,164.67 L 2419.45,208.21 L 2406.44,218.38 L 2536.71,283.57 L 2489.06,378.70 L 2553.26,398.86 L 2521.95,453.21 L 2514.89,472.19 L 2457.22,442.86 L 2378.25,399.04 L 2348.73,436.46 L 2349.34,437.67 L 2296.64,494.00 L 2254.52,442.78 L 2126.74,246.80 L 2200.54,156.51 L 2173.00,73.76 L 2234.99,109.44 L 2276.78,26.00 L 2314.34,49.26 L 2333.09,62.72 L 2360.19,91.32 L 2376.31,104.25 L 2393.82,114.13 L 2419.85,122.98 L 2431.75,128.82 L 2445.22,139.06 L 2454.63,149.27 Z" fill="none" stroke="#dddddd" stroke-width="1.5" fill-rule="evenodd"/>
<text font-size="68.4" font-family="Arial Rounded MT Bold, Cooper Black, Chalkboard SE, sans-serif" font-weight="900" fill="#111111" text-anchor="middle"><textPath href="#p8" startOffset="50%">DAVIS</textPath></text>
<text font-size="68.4" font-family="Arial Rounded MT Bold, Cooper Black, Chalkboard SE, sans-serif" font-weight="900" fill="#111111" text-anchor="middle"><textPath href="#p9" startOffset="50%">SQUARE</textPath></text>
<text x="2088" y="16" font-size="12" font-family="monospace" fill="#999999">Davis Square</text>
<path d="M 370.55,685.39 L 350.98,731.81 L 494.00,754.18 L 468.01,840.88 L 310.69,896.37 L 179.31,935.46 L 103.92,846.45 L 143.05,823.81 L 26.00,696.63 L 113.01,625.30 L 175.94,661.04 L 194.31,624.54 L 370.55,685.39 Z" fill="none" stroke="#dddddd" stroke-width="1.5" fill-rule="evenodd"/>
<text font-size="56.4" font-family="Arial Rounded MT Bold, Cooper Black, Chalkboard SE, sans-serif" font-weight="900" fill="#111111" text-anchor="middle"><textPath href="#p10" startOffset="50%">DUCK</textPath></text>
<text font-size="56.4" font-family="Arial Rounded MT Bold, Cooper Black, Chalkboard SE, sans-serif" font-weight="900" fill="#111111" text-anchor="middle"><textPath href="#p11" startOffset="50%">VILLAGE</textPath></text>
<text x="8" y="536" font-size="12" font-family="monospace" fill="#999999">Duck Village</text>
<path d="M 960.73,805.98 L 900.98,920.65 L 868.40,941.73 L 869.48,948.40 L 799.84,964.26 L 732.03,977.42 L 665.34,1002.27 L 649.62,1009.21 L 642.80,1014.00 L 630.77,965.68 L 611.09,930.36 L 599.60,903.75 L 599.27,889.94 L 611.12,831.49 L 626.21,781.19 L 650.28,727.17 L 659.25,713.31 L 725.90,624.29 L 738.83,591.75 L 746.25,546.00 L 770.74,574.33 L 821.38,648.99 L 839.25,668.93 L 923.06,754.23 L 943.71,779.56 L 960.73,805.98 Z" fill="none" stroke="#dddddd" stroke-width="1.5" fill-rule="evenodd"/>
<text font-size="44.0" font-family="Arial Rounded MT Bold, Cooper Black, Chalkboard SE, sans-serif" font-weight="900" fill="#111111" text-anchor="middle"><textPath href="#p12" startOffset="50%">EAST</textPath></text>
<text font-size="44.0" font-family="Arial Rounded MT Bold, Cooper Black, Chalkboard SE, sans-serif" font-weight="900" fill="#111111" text-anchor="middle"><textPath href="#p13" startOffset="50%">SOMERVILLE</textPath></text>
<text x="528" y="536" font-size="12" font-family="monospace" fill="#999999">East Somerville</text>
<path d="M 1432.43,871.49 L 1361.29,1014.00 L 1310.14,984.38 L 1341.23,920.69 L 1325.96,907.13 L 1243.56,864.29 L 1220.62,910.19 L 1165.00,874.14 L 1182.99,840.91 L 1193.33,825.02 L 1197.08,816.90 L 1200.80,800.50 L 1200.20,781.11 L 1190.94,750.62 L 1185.94,728.07 L 1186.49,713.72 L 1191.23,682.12 L 1195.42,631.93 L 1201.42,632.03 L 1207.77,629.74 L 1210.94,627.45 L 1213.41,623.22 L 1214.22,618.42 L 1212.92,590.34 L 1214.46,583.91 L 1217.60,579.83 L 1231.74,570.52 L 1248.83,562.23 L 1286.73,549.54 L 1307.08,546.00 L 1310.60,547.47 L 1313.10,550.36 L 1315.86,557.60 L 1316.59,575.28 L 1319.52,581.87 L 1250.78,687.69 L 1315.43,717.58 L 1292.42,764.95 L 1333.61,806.95 L 1343.76,786.10 L 1396.69,810.13 L 1383.90,838.05 L 1435.00,861.26 L 1430.78,870.73 L 1432.43,871.49 Z" fill="none" stroke="#dddddd" stroke-width="1.5" fill-rule="evenodd"/>
<text font-size="41.7" font-family="Arial Rounded MT Bold, Cooper Black, Chalkboard SE, sans-serif" font-weight="900" fill="#111111" text-anchor="middle"><textPath href="#p14" startOffset="50%">HILLSIDE</textPath></text>
<text x="1048" y="536" font-size="12" font-family="monospace" fill="#999999">Hillside</text>
<path d="M 2054.00,953.50 L 1753.76,903.82 L 1660.77,775.69 L 1586.00,660.18 L 1648.43,638.82 L 1719.75,625.51 L 1803.24,606.50 L 1810.61,652.35 L 1967.82,687.08 L 2054.00,953.50 Z" fill="none" stroke="#dddddd" stroke-width="1.5" fill-rule="evenodd"/>
<text font-size="69.8" font-family="Arial Rounded MT Bold, Cooper Black, Chalkboard SE, sans-serif" font-weight="900" fill="#111111" text-anchor="middle"><textPath href="#p15" startOffset="50%">INNER</textPath></text>
<text font-size="69.8" font-family="Arial Rounded MT Bold, Cooper Black, Chalkboard SE, sans-serif" font-weight="900" fill="#111111" text-anchor="middle"><textPath href="#p16" startOffset="50%">BELT</textPath></text>
<text x="1568" y="536" font-size="12" font-family="monospace" fill="#999999">Inner Belt</text>
<path d="M 2508.27,719.08 L 2503.38,726.69 L 2574.00,767.41 L 2449.34,1010.32 L 2423.37,995.24 L 2397.94,976.40 L 2361.21,943.91 L 2326.57,905.30 L 2305.06,871.18 L 2276.32,928.13 L 2205.81,892.28 L 2204.34,886.40 L 2106.00,843.88 L 2194.30,670.81 L 2127.79,549.68 L 2508.27,719.08 Z" fill="none" stroke="#dddddd" stroke-width="1.5" fill-rule="evenodd"/>
<text font-size="83.1" font-family="Arial Rounded MT Bold, Cooper Black, Chalkboard SE, sans-serif" font-weight="900" fill="#111111" text-anchor="middle"><textPath href="#p17" startOffset="50%">MAGOUN</textPath></text>
<text font-size="83.1" font-family="Arial Rounded MT Bold, Cooper Black, Chalkboard SE, sans-serif" font-weight="900" fill="#111111" text-anchor="middle"><textPath href="#p18" startOffset="50%">SQUARE</textPath></text>
<text x="2088" y="536" font-size="12" font-family="monospace" fill="#999999">Magoun Square</text>
<path d="M 478.25,1296.41 L 494.00,1350.10 L 468.69,1358.95 L 436.12,1375.03 L 423.07,1378.42 L 408.66,1378.01 L 397.36,1374.86 L 387.87,1368.21 L 377.31,1352.00 L 360.44,1312.80 L 347.41,1301.23 L 334.89,1299.99 L 322.42,1302.69 L 292.24,1316.03 L 267.84,1322.85 L 249.71,1319.73 L 234.28,1307.67 L 218.52,1290.27 L 200.93,1279.45 L 186.93,1279.51 L 158.11,1290.76 L 151.71,1289.58 L 138.00,1280.43 L 128.11,1280.37 L 104.58,1290.20 L 26.00,1221.58 L 478.25,1296.41 Z" fill="none" stroke="#dddddd" stroke-width="1.5" fill-rule="evenodd"/>
<text font-size="33.9" font-family="Arial Rounded MT Bold, Cooper Black, Chalkboard SE, sans-serif" font-weight="900" fill="#111111" text-anchor="middle"><textPath href="#p19" startOffset="50%">NORTH POINT</textPath></text>
<text x="8" y="1056" font-size="12" font-family="monospace" fill="#999999">North Point</text>
<path d="M 795.85,1134.71 L 780.16,1169.05 L 800.67,1184.13 L 837.16,1217.56 L 846.61,1199.51 L 875.35,1214.60 L 841.62,1280.81 L 873.21,1296.58 L 832.83,1375.32 L 856.84,1407.88 L 856.04,1409.43 L 887.29,1430.93 L 864.35,1473.36 L 920.22,1534.00 L 889.95,1530.83 L 787.98,1413.43 L 750.86,1353.91 L 715.45,1306.99 L 735.50,1293.74 L 720.76,1268.48 L 745.36,1250.87 L 709.55,1202.33 L 660.80,1140.53 L 639.78,1101.15 L 667.51,1066.00 L 741.68,1107.16 L 795.85,1134.71 Z" fill="none" stroke="#dddddd" stroke-width="1.5" fill-rule="evenodd"/>
<text font-size="21.6" font-family="Arial Rounded MT Bold, Cooper Black, Chalkboard SE, sans-serif" font-weight="900" fill="#111111" text-anchor="middle"><textPath href="#p20" startOffset="50%">PORTER SQUARE</textPath></text>
<text x="528" y="1056" font-size="12" font-family="monospace" fill="#999999">Porter Square</text>
<path d="M 1534.00,1436.54 L 1487.49,1473.74 L 1453.34,1507.14 L 1439.54,1524.71 L 1421.36,1525.18 L 1413.94,1519.99 L 1409.47,1508.11 L 1400.02,1496.91 L 1370.36,1470.87 L 1341.14,1455.61 L 1291.08,1438.59 L 1263.31,1423.61 L 1226.40,1394.73 L 1174.28,1339.74 L 1138.23,1313.86 L 1066.00,1269.12 L 1162.76,1074.82 L 1284.34,1130.50 L 1291.25,1115.94 L 1503.01,1218.57 L 1502.08,1381.71 L 1534.00,1436.54 Z" fill="none" stroke="#dddddd" stroke-width="1.5" fill-rule="evenodd"/>
<text font-size="68.1" font-family="Arial Rounded MT Bold, Cooper Black, Chalkboard SE, sans-serif" font-weight="900" fill="#111111" text-anchor="middle"><textPath href="#p21" startOffset="50%">POWDER</textPath></text>
<text font-size="68.1" font-family="Arial Rounded MT Bold, Cooper Black, Chalkboard SE, sans-serif" font-weight="900" fill="#111111" text-anchor="middle"><textPath href="#p22" startOffset="50%">HOUSE</textPath></text>
<text font-size="68.1" font-family="Arial Rounded MT Bold, Cooper Black, Chalkboard SE, sans-serif" font-weight="900" fill="#111111" text-anchor="middle"><textPath href="#p23" startOffset="50%">SQUARE</textPath></text>
<text x="1048" y="1056" font-size="12" font-family="monospace" fill="#999999">Powder House Square</text>
<path d="M 1709.43,1088.43 L 1705.28,1096.99 L 1771.63,1125.69 L 1772.62,1129.65 L 1820.20,1153.84 L 1839.59,1115.41 L 1858.91,1144.38 L 1877.48,1164.49 L 1902.26,1186.41 L 1919.42,1199.12 L 2047.29,1275.59 L 1958.25,1453.65 L 1937.56,1444.56 L 1936.85,1446.18 L 1920.52,1439.04 L 1880.93,1529.63 L 1812.43,1505.98 L 1805.29,1520.17 L 1780.82,1506.27 L 1747.01,1534.00 L 1720.71,1505.43 L 1724.27,1505.80 L 1671.79,1448.84 L 1693.34,1408.98 L 1663.98,1388.78 L 1664.74,1387.32 L 1642.18,1356.74 L 1680.12,1282.77 L 1650.44,1267.95 L 1682.12,1205.75 L 1655.13,1191.58 L 1646.25,1208.53 L 1611.97,1177.13 L 1592.71,1162.96 L 1603.69,1140.07 L 1613.67,1113.95 L 1641.30,1066.00 L 1709.43,1088.43 Z" fill="none" stroke="#dddddd" stroke-width="1.5" fill-rule="evenodd"/>
<text font-size="87.9" font-family="Arial Rounded MT Bold, Cooper Black, Chalkboard SE, sans-serif" font-weight="900" fill="#111111" text-anchor="middle"><textPath href="#p24" startOffset="50%">SPRING</textPath></text>
<text font-size="87.9" font-family="Arial Rounded MT Bold, Cooper Black, Chalkboard SE, sans-serif" font-weight="900" fill="#111111" text-anchor="middle"><textPath href="#p25" startOffset="50%">HILL</textPath></text>
<text x="1568" y="1056" font-size="12" font-family="monospace" fill="#999999">Spring Hill</text>
<path d="M 2465.31,1289.46 L 2504.22,1406.39 L 2399.93,1534.00 L 2298.22,1379.25 L 2163.78,1234.75 L 2165.10,1170.56 L 2167.72,1150.58 L 2181.70,1106.36 L 2193.83,1084.02 L 2295.58,1149.98 L 2337.54,1066.00 L 2490.79,1146.23 L 2516.22,1169.19 L 2459.36,1285.69 L 2465.31,1289.46 Z" fill="none" stroke="#dddddd" stroke-width="1.5" fill-rule="evenodd"/>
<text font-size="74.0" font-family="Arial Rounded MT Bold, Cooper Black, Chalkboard SE, sans-serif" font-weight="900" fill="#111111" text-anchor="middle"><textPath href="#p26" startOffset="50%">TEELE</textPath></text>
<text font-size="74.0" font-family="Arial Rounded MT Bold, Cooper Black, Chalkboard SE, sans-serif" font-weight="900" fill="#111111" text-anchor="middle"><textPath href="#p27" startOffset="50%">SQUARE</textPath></text>
<text x="2088" y="1056" font-size="12" font-family="monospace" fill="#999999">Teele Square</text>
<path d="M 494.00,1658.54 L 431.36,1902.33 L 424.28,1915.86 L 416.73,1945.17 L 404.46,2022.56 L 93.69,1711.99 L 26.00,1640.54 L 58.06,1653.59 L 69.25,1665.16 L 82.11,1673.10 L 97.13,1674.11 L 117.72,1694.09 L 128.69,1695.93 L 157.89,1690.18 L 190.01,1671.69 L 234.14,1659.14 L 252.70,1657.50 L 285.62,1633.81 L 339.74,1617.44 L 358.08,1618.46 L 370.80,1622.87 L 410.74,1645.69 L 450.23,1672.79 L 460.86,1669.47 L 482.36,1654.61 L 494.00,1658.54 Z" fill="none" stroke="#dddddd" stroke-width="1.5" fill-rule="evenodd"/>
<text font-size="96.4" font-family="Arial Rounded MT Bold, Cooper Black, Chalkboard SE, sans-serif" font-weight="900" fill="#111111" text-anchor="middle"><textPath href="#p28" startOffset="50%">TEN</textPath></text>
<text font-size="96.4" font-family="Arial Rounded MT Bold, Cooper Black, Chalkboard SE, sans-serif" font-weight="900" fill="#111111" text-anchor="middle"><textPath href="#p29" startOffset="50%">HILLS</textPath></text>
<text x="8" y="1576" font-size="12" font-family="monospace" fill="#999999">Ten Hills</text>
<path d="M 918.85,1838.49 L 1014.00,1921.59 L 990.29,1934.18 L 966.11,1937.85 L 952.10,1954.71 L 910.35,1972.77 L 854.06,1969.83 L 823.87,1975.83 L 801.63,1974.13 L 791.57,1969.78 L 783.41,1961.45 L 755.86,1916.94 L 719.63,1992.66 L 638.76,1966.77 L 642.09,1949.43 L 607.60,1909.06 L 551.96,1740.60 L 546.00,1713.68 L 549.39,1647.34 L 560.09,1666.46 L 575.43,1682.48 L 672.08,1745.33 L 714.22,1791.93 L 739.16,1810.85 L 918.85,1838.49 Z" fill="none" stroke="#dddddd" stroke-width="1.5" fill-rule="evenodd"/>
<text font-size="30.5" font-family="Arial Rounded MT Bold, Cooper Black, Chalkboard SE, sans-serif" font-weight="900" fill="#111111" text-anchor="middle"><textPath href="#p30" startOffset="50%">TWIN</textPath></text>
<text font-size="30.5" font-family="Arial Rounded MT Bold, Cooper Black, Chalkboard SE, sans-serif" font-weight="900" fill="#111111" text-anchor="middle"><textPath href="#p31" startOffset="50%">CITY</textPath></text>
<text x="528" y="1576" font-size="12" font-family="monospace" fill="#999999">Twin City</text>
<path d="M 1465.72,1725.46 L 1463.10,1742.53 L 1464.51,1753.53 L 1474.68,1775.88 L 1493.29,1809.27 L 1505.96,1860.18 L 1503.02,1861.49 L 1520.22,1944.78 L 1518.75,1973.46 L 1527.71,2004.44 L 1459.71,1993.88 L 1439.17,1987.34 L 1409.60,1974.27 L 1368.58,1948.95 L 1360.09,1965.29 L 1381.06,2053.94 L 1314.27,2049.94 L 1174.87,2054.00 L 1072.29,1930.07 L 1122.32,1915.19 L 1182.22,1894.06 L 1192.00,1860.91 L 1139.42,1853.21 L 1137.66,1852.53 L 1137.90,1851.19 L 1183.90,1746.11 L 1199.89,1753.11 L 1200.58,1751.52 L 1220.85,1760.43 L 1308.08,1586.00 L 1380.30,1630.11 L 1405.82,1649.41 L 1435.39,1683.96 L 1465.72,1725.46 Z" fill="none" stroke="#dddddd" stroke-width="1.5" fill-rule="evenodd"/>
<text font-size="72.2" font-family="Arial Rounded MT Bold, Cooper Black, Chalkboard SE, sans-serif" font-weight="900" fill="#111111" text-anchor="middle"><textPath href="#p32" startOffset="50%">UNION</textPath></text>
<text font-size="72.2" font-family="Arial Rounded MT Bold, Cooper Black, Chalkboard SE, sans-serif" font-weight="900" fill="#111111" text-anchor="middle"><textPath href="#p33" startOffset="50%">SQUARE</textPath></text>
<text x="1048" y="1576" font-size="12" font-family="monospace" fill="#999999">Union Square</text>
<path d="M 1838.13,1622.85 L 1866.24,1652.51 L 1995.25,1781.44 L 1989.13,1819.11 L 1978.49,1845.90 L 1919.98,1924.40 L 1913.74,1935.40 L 1898.75,1969.38 L 1888.67,1998.28 L 1876.16,2054.00 L 1849.75,2017.86 L 1824.00,1987.77 L 1801.77,1970.97 L 1644.75,1876.01 L 1716.50,1736.20 L 1675.86,1712.76 L 1757.30,1586.00 L 1802.39,1603.59 L 1838.13,1622.85 Z" fill="none" stroke="#dddddd" stroke-width="1.5" fill-rule="evenodd"/>
<text font-size="70.6" font-family="Arial Rounded MT Bold, Cooper Black, Chalkboard SE, sans-serif" font-weight="900" fill="#111111" text-anchor="middle"><textPath href="#p34" startOffset="50%">WINTER</textPath></text>
<text font-size="70.6" font-family="Arial Rounded MT Bold, Cooper Black, Chalkboard SE, sans-serif" font-weight="900" fill="#111111" text-anchor="middle"><textPath href="#p35" startOffset="50%">HILL</textPath></text>
<text x="1568" y="1576" font-size="12" font-family="monospace" fill="#999999">Winter Hill</text>
</svg>
